<svg width="987" height="308" viewBox="0 0 987 308" fill="none" xmlns="http://www.w3.org/2000/svg">
<g filter="url(#filter0_i_953_35)">
<rect width="987" height="308" rx="48" fill="#1A5140"/>
<path fill-rule="evenodd" clip-rule="evenodd" d="M187.896 174.355H219.5C222.472 174.355 224.881 171.946 224.881 168.975V149.356C224.881 147.006 222.976 145.102 220.627 145.102H220.478H178.707C172.711 145.102 166.031 146.289 160.813 148.441C149.311 153.186 140.241 162.618 135.99 174.355C134.285 179.064 133.355 184.868 133.355 190.165V230.138V235.271C133.355 241.262 138.212 246.119 144.203 246.119H153.933C157.733 246.119 160.813 243.038 160.813 239.238V230.437V201.407V190.811C160.813 180.755 169.966 174.355 177.288 174.355H187.896Z" fill="#5CA87C"/>
<path fill-rule="evenodd" clip-rule="evenodd" d="M120.464 126.397C118.805 127.977 117.207 129.62 115.674 131.322C112.354 135.006 109.337 138.967 106.659 143.166C97.8069 157.05 93.1335 171.638 92.678 191.226V214.927V235.271C92.678 241.262 97.5346 246.119 103.525 246.119H111.478H113.796H120.008C120.26 246.119 120.464 245.915 120.464 245.663V201.772L120.92 188.72C120.92 162.299 142.784 134.055 177.175 131.55L190.909 131.322H228.715C234.087 131.322 238.441 126.968 238.441 121.597V110.805C238.441 105.783 234.37 101.712 229.348 101.712H226.132H182.185C165.077 101.712 149.089 106.512 135.496 114.84C130.078 118.159 125.04 122.038 120.464 126.397Z" fill="#B7E5BA"/>
<path fill-rule="evenodd" clip-rule="evenodd" d="M100.813 128.956C125.96 98.1161 153.311 88.5645 190.706 88.5645H241.153C247.143 88.5645 252 83.7079 252 77.717V69.8475C252 63.8566 247.143 59 241.153 59H120.262H102.847C96.8566 59 92 63.8566 92 69.8475V88.5645V125.982C92 128.679 94.1859 130.864 96.8823 130.864H97.3125C98.7252 130.864 100.033 130.134 100.813 128.956Z" fill="#5CA87C"/>
<path d="M299.38 91H351.76V109H319.18V144.1H344.74V162.1H319.18V217H299.38V91ZM365.255 91H394.595C404.795 91 412.235 93.4 416.915 98.2C421.595 102.88 423.935 110.14 423.935 119.98V127.72C423.935 140.8 419.615 149.08 410.975 152.56V152.92C415.775 154.36 419.135 157.3 421.055 161.74C423.095 166.18 424.115 172.12 424.115 179.56V201.7C424.115 205.3 424.235 208.24 424.475 210.52C424.715 212.68 425.315 214.84 426.275 217H406.115C405.395 214.96 404.915 213.04 404.675 211.24C404.435 209.44 404.315 206.2 404.315 201.52V178.48C404.315 172.72 403.355 168.7 401.435 166.42C399.635 164.14 396.455 163 391.895 163H385.055V217H365.255V91ZM392.255 145C396.215 145 399.155 143.98 401.075 141.94C403.115 139.9 404.135 136.48 404.135 131.68V121.96C404.135 117.4 403.295 114.1 401.615 112.06C400.055 110.02 397.535 109 394.055 109H385.055V145H392.255ZM457.153 91H483.973L504.493 217H484.693L481.093 191.98V192.34H458.593L454.993 217H436.633L457.153 91ZM478.753 175.24L469.933 112.96H469.573L460.933 175.24H478.753ZM518.099 91H546.359L558.959 181.18H559.319L571.919 91H600.179V217H581.459V121.6H581.099L566.699 217H550.139L535.739 121.6H535.379V217H518.099V91ZM618.954 91H672.954V109H638.754V142.3H665.934V160.3H638.754V199H672.954V217H618.954V91ZM688.345 91H717.685C727.885 91 735.325 93.4 740.005 98.2C744.685 102.88 747.025 110.14 747.025 119.98V127.72C747.025 140.8 742.705 149.08 734.065 152.56V152.92C738.865 154.36 742.225 157.3 744.145 161.74C746.185 166.18 747.205 172.12 747.205 179.56V201.7C747.205 205.3 747.325 208.24 747.565 210.52C747.805 212.68 748.405 214.84 749.365 217H729.205C728.485 214.96 728.005 213.04 727.765 211.24C727.525 209.44 727.405 206.2 727.405 201.52V178.48C727.405 172.72 726.445 168.7 724.525 166.42C722.725 164.14 719.545 163 714.985 163H708.145V217H688.345V91ZM715.345 145C719.305 145 722.245 143.98 724.165 141.94C726.205 139.9 727.225 136.48 727.225 131.68V121.96C727.225 117.4 726.385 114.1 724.705 112.06C723.145 110.02 720.625 109 717.145 109H708.145V145H715.345Z" fill="#B7E5BA"/>
<path d="M764.943 91H817.323V109H784.743V144.1H810.303V162.1H784.743V217H764.943V91ZM848.998 163.36L825.058 91H846.118L859.618 137.26H859.978L873.478 91H892.738L868.798 163.36V217H848.998V163.36Z" fill="#5CA87C"/>
</g>
<defs>
<filter id="filter0_i_953_35" x="0" y="0" width="987" height="316" filterUnits="userSpaceOnUse" color-interpolation-filters="sRGB">
<feFlood flood-opacity="0" result="BackgroundImageFix"/>
<feBlend mode="normal" in="SourceGraphic" in2="BackgroundImageFix" result="shape"/>
<feColorMatrix in="SourceAlpha" type="matrix" values="0 0 0 0 0 0 0 0 0 0 0 0 0 0 0 0 0 0 127 0" result="hardAlpha"/>
<feOffset dy="8"/>
<feGaussianBlur stdDeviation="26"/>
<feComposite in2="hardAlpha" operator="arithmetic" k2="-1" k3="1"/>
<feColorMatrix type="matrix" values="0 0 0 0 0.717647 0 0 0 0 0.898039 0 0 0 0 0.729412 0 0 0 0.2 0"/>
<feBlend mode="normal" in2="shape" result="effect1_innerShadow_953_35"/>
</filter>
</defs>
</svg>
